solid csg.js
facet normal -1 0 0
outer loop
vertex 2.5 32.5 10
vertex 2.5 32.5 -10
vertex 2.5 27.5 -10
endloop
endfacet
facet normal -1 0 0
outer loop
vertex 2.5 32.5 10
vertex 2.5 27.5 -10
vertex 2.5 27.5 10
endloop
endfacet
facet normal -1 0 0
outer loop
vertex 2.5 62.5 10
vertex 2.5 62.5 -10
vertex 2.5 52.5 -10
endloop
endfacet
facet normal -1 0 0
outer loop
vertex 2.5 62.5 10
vertex 2.5 52.5 -10
vertex 2.5 52.5 10
endloop
endfacet
facet normal -1 0 0
outer loop
vertex 2.5 77.5 10
vertex 2.5 77.5 -10
vertex 2.5 72.5 -10
endloop
endfacet
facet normal -1 0 0
outer loop
vertex 2.5 77.5 10
vertex 2.5 72.5 -10
vertex 2.5 72.5 10
endloop
endfacet
facet normal 0 1 0
outer loop
vertex 17.5 77.5 10
vertex 17.5 77.5 -10
vertex 2.5 77.5 -10
endloop
endfacet
facet normal 0 1 0
outer loop
vertex 17.5 77.5 10
vertex 2.5 77.5 -10
vertex 2.5 77.5 10
endloop
endfacet
facet normal 0 0 -1
outer loop
vertex 17.5 77.5 -10
vertex 17.5 72.5 -10
vertex 2.5 72.5 -10
endloop
endfacet
facet normal 0 0 -1
outer loop
vertex 17.5 77.5 -10
vertex 2.5 72.5 -10
vertex 2.5 77.5 -10
endloop
endfacet
facet normal 0 0 -1
outer loop
vertex 22.5 72.5 -10
vertex 22.5 67.5 -10
vertex 12.5 67.5 -10
endloop
endfacet
facet normal 0 0 -1
outer loop
vertex 22.5 72.5 -10
vertex 12.5 67.5 -10
vertex 12.5 72.5 -10
endloop
endfacet
facet normal 0 0 -1
outer loop
vertex 7.5 72.5 -10
vertex 7.5 62.5 -10
vertex -2.5 62.5 -10
endloop
endfacet
facet normal 0 0 -1
outer loop
vertex 7.5 72.5 -10
vertex -2.5 62.5 -10
vertex -2.5 72.5 -10
endloop
endfacet
facet normal 0 0 -1
outer loop
vertex 22.5 67.5 -10
vertex 22.5 62.5 -10
vertex 17.5 62.5 -10
endloop
endfacet
facet normal 0 0 -1
outer loop
vertex 22.5 67.5 -10
vertex 17.5 62.5 -10
vertex 17.5 67.5 -10
endloop
endfacet
facet normal 0 0 -1
outer loop
vertex 32.5 62.5 -10
vertex 32.5 57.5 -10
vertex 17.5 57.5 -10
endloop
endfacet
facet normal 0 0 -1
outer loop
vertex 32.5 62.5 -10
vertex 17.5 57.5 -10
vertex 17.5 62.5 -10
endloop
endfacet
facet normal 0 0 -1
outer loop
vertex 67.5 62.5 -10
vertex 67.5 57.5 -10
vertex 42.5 57.5 -10
endloop
endfacet
facet normal 0 0 -1
outer loop
vertex 67.5 62.5 -10
vertex 42.5 57.5 -10
vertex 42.5 62.5 -10
endloop
endfacet
facet normal 0 0 -1
outer loop
vertex 7.5 62.5 -10
vertex 7.5 52.5 -10
vertex 2.5 52.5 -10
endloop
endfacet
facet normal 0 0 -1
outer loop
vertex 7.5 62.5 -10
vertex 2.5 52.5 -10
vertex 2.5 62.5 -10
endloop
endfacet
facet normal 0 0 -1
outer loop
vertex 52.5 57.5 -10
vertex 52.5 52.5 -10
vertex 27.5 52.5 -10
endloop
endfacet
facet normal 0 0 -1
outer loop
vertex 52.5 57.5 -10
vertex 27.5 52.5 -10
vertex 27.5 57.5 -10
endloop
endfacet
facet normal 0 0 -1
outer loop
vertex 62.5 57.5 -10
vertex 62.5 52.5 -10
vertex 57.5 52.5 -10
endloop
endfacet
facet normal 0 0 -1
outer loop
vertex 62.5 57.5 -10
vertex 57.5 52.5 -10
vertex 57.5 57.5 -10
endloop
endfacet
facet normal 0 0 -1
outer loop
vertex 32.5 52.5 -10
vertex 32.5 47.5 -10
vertex 22.5 47.5 -10
endloop
endfacet
facet normal 0 0 -1
outer loop
vertex 32.5 52.5 -10
vertex 22.5 47.5 -10
vertex 22.5 52.5 -10
endloop
endfacet
facet normal 0 0 -1
outer loop
vertex 62.5 52.5 -10
vertex 62.5 47.5 -10
vertex 52.5 47.5 -10
endloop
endfacet
facet normal 0 0 -1
outer loop
vertex 62.5 52.5 -10
vertex 52.5 47.5 -10
vertex 52.5 52.5 -10
endloop
endfacet
facet normal 0 0 -1
outer loop
vertex 27.5 47.5 -10
vertex 27.5 42.5 -10
vertex 12.5 42.5 -10
endloop
endfacet
facet normal 0 0 -1
outer loop
vertex 27.5 47.5 -10
vertex 12.5 42.5 -10
vertex 12.5 47.5 -10
endloop
endfacet
facet normal 0 0 -1
outer loop
vertex 57.5 47.5 -10
vertex 57.5 37.5 -10
vertex 52.5 37.5 -10
endloop
endfacet
facet normal 0 0 -1
outer loop
vertex 57.5 47.5 -10
vertex 52.5 37.5 -10
vertex 52.5 47.5 -10
endloop
endfacet
facet normal 0 0 -1
outer loop
vertex 67.5 47.5 -10
vertex 67.5 37.5 -10
vertex 62.5 37.5 -10
endloop
endfacet
facet normal 0 0 -1
outer loop
vertex 67.5 47.5 -10
vertex 62.5 37.5 -10
vertex 62.5 47.5 -10
endloop
endfacet
facet normal 0 0 -1
outer loop
vertex 22.5 42.5 -10
vertex 22.5 32.5 -10
vertex 12.5 32.5 -10
endloop
endfacet
facet normal 0 0 -1
outer loop
vertex 22.5 42.5 -10
vertex 12.5 32.5 -10
vertex 12.5 42.5 -10
endloop
endfacet
facet normal 0 0 -1
outer loop
vertex 57.5 37.5 -10
vertex 57.5 32.5 -10
vertex 47.5 32.5 -10
endloop
endfacet
facet normal 0 0 -1
outer loop
vertex 57.5 37.5 -10
vertex 47.5 32.5 -10
vertex 47.5 37.5 -10
endloop
endfacet
facet normal 0 0 -1
outer loop
vertex 22.5 32.5 -10
vertex 22.5 27.5 -10
vertex 2.5 27.5 -10
endloop
endfacet
facet normal 0 0 -1
outer loop
vertex 22.5 32.5 -10
vertex 2.5 27.5 -10
vertex 2.5 32.5 -10
endloop
endfacet
facet normal 0 0 -1
outer loop
vertex 52.5 32.5 -10
vertex 52.5 27.5 -10
vertex 42.5 27.5 -10
endloop
endfacet
facet normal 0 0 -1
outer loop
vertex 52.5 32.5 -10
vertex 42.5 27.5 -10
vertex 42.5 32.5 -10
endloop
endfacet
facet normal 0 0 -1
outer loop
vertex 27.5 27.5 -10
vertex 27.5 22.5 -10
vertex 17.5 22.5 -10
endloop
endfacet
facet normal 0 0 -1
outer loop
vertex 27.5 27.5 -10
vertex 17.5 22.5 -10
vertex 17.5 27.5 -10
endloop
endfacet
facet normal 0 0 -1
outer loop
vertex 27.5 22.5 -10
vertex 27.5 17.5 -10
vertex 22.5 17.5 -10
endloop
endfacet
facet normal 0 0 -1
outer loop
vertex 27.5 22.5 -10
vertex 22.5 17.5 -10
vertex 22.5 22.5 -10
endloop
endfacet
facet normal 0 0 -1
outer loop
vertex 27.5 17.5 -10
vertex 27.5 12.5 -10
vertex 17.5 12.5 -10
endloop
endfacet
facet normal 0 0 -1
outer loop
vertex 27.5 17.5 -10
vertex 17.5 12.5 -10
vertex 17.5 17.5 -10
endloop
endfacet
facet normal 0 0 -1
outer loop
vertex 22.5 12.5 -10
vertex 22.5 7.5 -10
vertex 12.5 7.5 -10
endloop
endfacet
facet normal 0 0 -1
outer loop
vertex 22.5 12.5 -10
vertex 12.5 7.5 -10
vertex 12.5 12.5 -10
endloop
endfacet
facet normal 0 0 -1
outer loop
vertex 37.5 12.5 -10
vertex 37.5 7.5 -10
vertex 32.5 7.5 -10
endloop
endfacet
facet normal 0 0 -1
outer loop
vertex 37.5 12.5 -10
vertex 32.5 7.5 -10
vertex 32.5 12.5 -10
endloop
endfacet
facet normal 0 0 -1
outer loop
vertex 47.5 12.5 -10
vertex 47.5 7.5 -10
vertex 42.5 7.5 -10
endloop
endfacet
facet normal 0 0 -1
outer loop
vertex 47.5 12.5 -10
vertex 42.5 7.5 -10
vertex 42.5 12.5 -10
endloop
endfacet
facet normal 0 0 -1
outer loop
vertex 57.5 27.5 -10
vertex 57.5 7.5 -10
vertex 52.5 7.5 -10
endloop
endfacet
facet normal 0 0 -1
outer loop
vertex 57.5 27.5 -10
vertex 52.5 7.5 -10
vertex 52.5 27.5 -10
endloop
endfacet
facet normal 0 0 -1
outer loop
vertex 17.5 7.5 -10
vertex 17.5 2.5 -10
vertex 7.5 2.5 -10
endloop
endfacet
facet normal 0 0 -1
outer loop
vertex 17.5 7.5 -10
vertex 7.5 2.5 -10
vertex 7.5 7.5 -10
endloop
endfacet
facet normal 0 0 -1
outer loop
vertex 57.5 7.5 -10
vertex 57.5 2.5 -10
vertex 27.5 2.5 -10
endloop
endfacet
facet normal 0 0 -1
outer loop
vertex 57.5 7.5 -10
vertex 27.5 2.5 -10
vertex 27.5 7.5 -10
endloop
endfacet
facet normal 0 0 -1
outer loop
vertex 12.5 2.5 -10
vertex 12.5 -2.5 -10
vertex 7.5 -2.5 -10
endloop
endfacet
facet normal 0 0 -1
outer loop
vertex 12.5 2.5 -10
vertex 7.5 -2.5 -10
vertex 7.5 2.5 -10
endloop
endfacet
facet normal 0 0 -1
outer loop
vertex 47.5 2.5 -10
vertex 47.5 -2.5 -10
vertex 42.5 -2.5 -10
endloop
endfacet
facet normal 0 0 -1
outer loop
vertex 47.5 2.5 -10
vertex 42.5 -2.5 -10
vertex 42.5 2.5 -10
endloop
endfacet
facet normal 0 0 1
outer loop
vertex 12.5 -2.5 10
vertex 12.5 2.5 10
vertex 7.5 2.5 10
endloop
endfacet
facet normal 0 0 1
outer loop
vertex 12.5 -2.5 10
vertex 7.5 2.5 10
vertex 7.5 -2.5 10
endloop
endfacet
facet normal 0 0 1
outer loop
vertex 47.5 -2.5 10
vertex 47.5 2.5 10
vertex 42.5 2.5 10
endloop
endfacet
facet normal 0 0 1
outer loop
vertex 47.5 -2.5 10
vertex 42.5 2.5 10
vertex 42.5 -2.5 10
endloop
endfacet
facet normal 0 0 1
outer loop
vertex 17.5 2.5 10
vertex 17.5 7.5 10
vertex 7.5 7.5 10
endloop
endfacet
facet normal 0 0 1
outer loop
vertex 17.5 2.5 10
vertex 7.5 7.5 10
vertex 7.5 2.5 10
endloop
endfacet
facet normal 0 0 1
outer loop
vertex 57.5 2.5 10
vertex 57.5 7.5 10
vertex 27.5 7.5 10
endloop
endfacet
facet normal 0 0 1
outer loop
vertex 57.5 2.5 10
vertex 27.5 7.5 10
vertex 27.5 2.5 10
endloop
endfacet
facet normal 0 0 1
outer loop
vertex 22.5 7.5 10
vertex 22.5 12.5 10
vertex 12.5 12.5 10
endloop
endfacet
facet normal 0 0 1
outer loop
vertex 22.5 7.5 10
vertex 12.5 12.5 10
vertex 12.5 7.5 10
endloop
endfacet
facet normal 0 0 1
outer loop
vertex 37.5 7.5 10
vertex 37.5 12.5 10
vertex 32.5 12.5 10
endloop
endfacet
facet normal 0 0 1
outer loop
vertex 37.5 7.5 10
vertex 32.5 12.5 10
vertex 32.5 7.5 10
endloop
endfacet
facet normal 0 0 1
outer loop
vertex 47.5 7.5 10
vertex 47.5 12.5 10
vertex 42.5 12.5 10
endloop
endfacet
facet normal 0 0 1
outer loop
vertex 47.5 7.5 10
vertex 42.5 12.5 10
vertex 42.5 7.5 10
endloop
endfacet
facet normal 0 0 1
outer loop
vertex 27.5 12.5 10
vertex 27.5 17.5 10
vertex 17.5 17.5 10
endloop
endfacet
facet normal 0 0 1
outer loop
vertex 27.5 12.5 10
vertex 17.5 17.5 10
vertex 17.5 12.5 10
endloop
endfacet
facet normal 0 0 1
outer loop
vertex 27.5 17.5 10
vertex 27.5 22.5 10
vertex 22.5 22.5 10
endloop
endfacet
facet normal 0 0 1
outer loop
vertex 27.5 17.5 10
vertex 22.5 22.5 10
vertex 22.5 17.5 10
endloop
endfacet
facet normal 0 0 1
outer loop
vertex 27.5 22.5 10
vertex 27.5 27.5 10
vertex 17.5 27.5 10
endloop
endfacet
facet normal 0 0 1
outer loop
vertex 27.5 22.5 10
vertex 17.5 27.5 10
vertex 17.5 22.5 10
endloop
endfacet
facet normal 0 0 1
outer loop
vertex 57.5 7.5 10
vertex 57.5 27.5 10
vertex 52.5 27.5 10
endloop
endfacet
facet normal 0 0 1
outer loop
vertex 57.5 7.5 10
vertex 52.5 27.5 10
vertex 52.5 7.5 10
endloop
endfacet
facet normal 0 0 1
outer loop
vertex 22.5 27.5 10
vertex 22.5 32.5 10
vertex 2.5 32.5 10
endloop
endfacet
facet normal 0 0 1
outer loop
vertex 22.5 27.5 10
vertex 2.5 32.5 10
vertex 2.5 27.5 10
endloop
endfacet
facet normal 0 0 1
outer loop
vertex 52.5 27.5 10
vertex 52.5 32.5 10
vertex 42.5 32.5 10
endloop
endfacet
facet normal 0 0 1
outer loop
vertex 52.5 27.5 10
vertex 42.5 32.5 10
vertex 42.5 27.5 10
endloop
endfacet
facet normal 0 0 1
outer loop
vertex 57.5 32.5 10
vertex 57.5 37.5 10
vertex 47.5 37.5 10
endloop
endfacet
facet normal 0 0 1
outer loop
vertex 57.5 32.5 10
vertex 47.5 37.5 10
vertex 47.5 32.5 10
endloop
endfacet
facet normal 0 0 1
outer loop
vertex 22.5 32.5 10
vertex 22.5 42.5 10
vertex 12.5 42.5 10
endloop
endfacet
facet normal 0 0 1
outer loop
vertex 22.5 32.5 10
vertex 12.5 42.5 10
vertex 12.5 32.5 10
endloop
endfacet
facet normal 0 0 1
outer loop
vertex 27.5 42.5 10
vertex 27.5 47.5 10
vertex 12.5 47.5 10
endloop
endfacet
facet normal 0 0 1
outer loop
vertex 27.5 42.5 10
vertex 12.5 47.5 10
vertex 12.5 42.5 10
endloop
endfacet
facet normal 0 0 1
outer loop
vertex 57.5 37.5 10
vertex 57.5 47.5 10
vertex 52.5 47.5 10
endloop
endfacet
facet normal 0 0 1
outer loop
vertex 57.5 37.5 10
vertex 52.5 47.5 10
vertex 52.5 37.5 10
endloop
endfacet
facet normal 0 0 1
outer loop
vertex 67.5 37.5 10
vertex 67.5 47.5 10
vertex 62.5 47.5 10
endloop
endfacet
facet normal 0 0 1
outer loop
vertex 67.5 37.5 10
vertex 62.5 47.5 10
vertex 62.5 37.5 10
endloop
endfacet
facet normal 0 0 1
outer loop
vertex 32.5 47.5 10
vertex 32.5 52.5 10
vertex 22.5 52.5 10
endloop
endfacet
facet normal 0 0 1
outer loop
vertex 32.5 47.5 10
vertex 22.5 52.5 10
vertex 22.5 47.5 10
endloop
endfacet
facet normal 0 0 1
outer loop
vertex 62.5 47.5 10
vertex 62.5 52.5 10
vertex 52.5 52.5 10
endloop
endfacet
facet normal 0 0 1
outer loop
vertex 62.5 47.5 10
vertex 52.5 52.5 10
vertex 52.5 47.5 10
endloop
endfacet
facet normal 0 0 1
outer loop
vertex 52.5 52.5 10
vertex 52.5 57.5 10
vertex 27.5 57.5 10
endloop
endfacet
facet normal 0 0 1
outer loop
vertex 52.5 52.5 10
vertex 27.5 57.5 10
vertex 27.5 52.5 10
endloop
endfacet
facet normal 0 0 1
outer loop
vertex 62.5 52.5 10
vertex 62.5 57.5 10
vertex 57.5 57.5 10
endloop
endfacet
facet normal 0 0 1
outer loop
vertex 62.5 52.5 10
vertex 57.5 57.5 10
vertex 57.5 52.5 10
endloop
endfacet
facet normal 0 0 1
outer loop
vertex 7.5 52.5 10
vertex 7.5 62.5 10
vertex 2.5 62.5 10
endloop
endfacet
facet normal 0 0 1
outer loop
vertex 7.5 52.5 10
vertex 2.5 62.5 10
vertex 2.5 52.5 10
endloop
endfacet
facet normal 0 0 1
outer loop
vertex 32.5 57.5 10
vertex 32.5 62.5 10
vertex 17.5 62.5 10
endloop
endfacet
facet normal 0 0 1
outer loop
vertex 32.5 57.5 10
vertex 17.5 62.5 10
vertex 17.5 57.5 10
endloop
endfacet
facet normal 0 0 1
outer loop
vertex 67.5 57.5 10
vertex 67.5 62.5 10
vertex 42.5 62.5 10
endloop
endfacet
facet normal 0 0 1
outer loop
vertex 67.5 57.5 10
vertex 42.5 62.5 10
vertex 42.5 57.5 10
endloop
endfacet
facet normal 0 0 1
outer loop
vertex 22.5 62.5 10
vertex 22.5 67.5 10
vertex 17.5 67.5 10
endloop
endfacet
facet normal 0 0 1
outer loop
vertex 22.5 62.5 10
vertex 17.5 67.5 10
vertex 17.5 62.5 10
endloop
endfacet
facet normal 0 0 1
outer loop
vertex 7.5 62.5 10
vertex 7.5 72.5 10
vertex -2.5 72.5 10
endloop
endfacet
facet normal 0 0 1
outer loop
vertex 7.5 62.5 10
vertex -2.5 72.5 10
vertex -2.5 62.5 10
endloop
endfacet
facet normal 0 0 1
outer loop
vertex 22.5 67.5 10
vertex 22.5 72.5 10
vertex 12.5 72.5 10
endloop
endfacet
facet normal 0 0 1
outer loop
vertex 22.5 67.5 10
vertex 12.5 72.5 10
vertex 12.5 67.5 10
endloop
endfacet
facet normal 0 0 1
outer loop
vertex 17.5 72.5 10
vertex 17.5 77.5 10
vertex 2.5 77.5 10
endloop
endfacet
facet normal 0 0 1
outer loop
vertex 17.5 72.5 10
vertex 2.5 77.5 10
vertex 2.5 72.5 10
endloop
endfacet
facet normal -1 0 0
outer loop
vertex -2.5 72.5 10
vertex -2.5 72.5 -10
vertex -2.5 62.5 -10
endloop
endfacet
facet normal -1 0 0
outer loop
vertex -2.5 72.5 10
vertex -2.5 62.5 -10
vertex -2.5 62.5 10
endloop
endfacet
facet normal 0 1 0
outer loop
vertex 2.5 72.5 10
vertex 2.5 72.5 -10
vertex -2.5 72.5 -10
endloop
endfacet
facet normal 0 1 0
outer loop
vertex 2.5 72.5 10
vertex -2.5 72.5 -10
vertex -2.5 72.5 10
endloop
endfacet
facet normal 0 1 0
outer loop
vertex 22.5 72.5 10
vertex 22.5 72.5 -10
vertex 17.5 72.5 -10
endloop
endfacet
facet normal 0 1 0
outer loop
vertex 22.5 72.5 10
vertex 17.5 72.5 -10
vertex 17.5 72.5 10
endloop
endfacet
facet normal 1 0 0
outer loop
vertex 7.5 72.5 -10
vertex 7.5 72.5 10
vertex 7.5 52.5 10
endloop
endfacet
facet normal 1 0 0
outer loop
vertex 7.5 72.5 -10
vertex 7.5 52.5 10
vertex 7.5 52.5 -10
endloop
endfacet
facet normal 0 -1 0
outer loop
vertex 12.5 72.5 10
vertex 7.5 72.5 10
vertex 7.5 72.5 -10
endloop
endfacet
facet normal 0 -1 0
outer loop
vertex 12.5 72.5 10
vertex 7.5 72.5 -10
vertex 12.5 72.5 -10
endloop
endfacet
facet normal -1 0 0
outer loop
vertex 12.5 12.5 10
vertex 12.5 12.5 -10
vertex 12.5 7.5 -10
endloop
endfacet
facet normal -1 0 0
outer loop
vertex 12.5 12.5 10
vertex 12.5 7.5 -10
vertex 12.5 7.5 10
endloop
endfacet
facet normal -1 0 0
outer loop
vertex 12.5 47.5 10
vertex 12.5 47.5 -10
vertex 12.5 32.5 -10
endloop
endfacet
facet normal -1 0 0
outer loop
vertex 12.5 47.5 10
vertex 12.5 32.5 -10
vertex 12.5 32.5 10
endloop
endfacet
facet normal -1 0 0
outer loop
vertex 12.5 72.5 10
vertex 12.5 72.5 -10
vertex 12.5 67.5 -10
endloop
endfacet
facet normal -1 0 0
outer loop
vertex 12.5 72.5 10
vertex 12.5 67.5 -10
vertex 12.5 67.5 10
endloop
endfacet
facet normal 1 0 0
outer loop
vertex 17.5 7.5 -10
vertex 17.5 7.5 10
vertex 17.5 2.5 10
endloop
endfacet
facet normal 1 0 0
outer loop
vertex 17.5 7.5 -10
vertex 17.5 2.5 10
vertex 17.5 2.5 -10
endloop
endfacet
facet normal 1 0 0
outer loop
vertex 17.5 77.5 -10
vertex 17.5 77.5 10
vertex 17.5 72.5 10
endloop
endfacet
facet normal 1 0 0
outer loop
vertex 17.5 77.5 -10
vertex 17.5 72.5 10
vertex 17.5 72.5 -10
endloop
endfacet
facet normal 0 -1 0
outer loop
vertex 2.5 62.5 -10
vertex 2.5 62.5 10
vertex -2.5 62.5 10
endloop
endfacet
facet normal 0 -1 0
outer loop
vertex 2.5 62.5 -10
vertex -2.5 62.5 10
vertex -2.5 62.5 -10
endloop
endfacet
facet normal 0 -1 0
outer loop
vertex 17.5 67.5 10
vertex 12.5 67.5 10
vertex 12.5 67.5 -10
endloop
endfacet
facet normal 0 -1 0
outer loop
vertex 17.5 67.5 10
vertex 12.5 67.5 -10
vertex 17.5 67.5 -10
endloop
endfacet
facet normal -1 0 0
outer loop
vertex 17.5 17.5 10
vertex 17.5 17.5 -10
vertex 17.5 12.5 -10
endloop
endfacet
facet normal -1 0 0
outer loop
vertex 17.5 17.5 10
vertex 17.5 12.5 -10
vertex 17.5 12.5 10
endloop
endfacet
facet normal -1 0 0
outer loop
vertex 17.5 27.5 10
vertex 17.5 27.5 -10
vertex 17.5 22.5 -10
endloop
endfacet
facet normal -1 0 0
outer loop
vertex 17.5 27.5 10
vertex 17.5 22.5 -10
vertex 17.5 22.5 10
endloop
endfacet
facet normal -1 0 0
outer loop
vertex 17.5 67.5 10
vertex 17.5 67.5 -10
vertex 17.5 57.5 -10
endloop
endfacet
facet normal -1 0 0
outer loop
vertex 17.5 67.5 10
vertex 17.5 57.5 -10
vertex 17.5 57.5 10
endloop
endfacet
facet normal 0 -1 0
outer loop
vertex 27.5 57.5 -10
vertex 27.5 57.5 10
vertex 17.5 57.5 10
endloop
endfacet
facet normal 0 -1 0
outer loop
vertex 27.5 57.5 -10
vertex 17.5 57.5 10
vertex 17.5 57.5 -10
endloop
endfacet
facet normal 0 -1 0
outer loop
vertex 57.5 57.5 -10
vertex 57.5 57.5 10
vertex 52.5 57.5 10
endloop
endfacet
facet normal 0 -1 0
outer loop
vertex 57.5 57.5 -10
vertex 52.5 57.5 10
vertex 52.5 57.5 -10
endloop
endfacet
facet normal 0 -1 0
outer loop
vertex 67.5 57.5 -10
vertex 67.5 57.5 10
vertex 62.5 57.5 10
endloop
endfacet
facet normal 0 -1 0
outer loop
vertex 67.5 57.5 -10
vertex 62.5 57.5 10
vertex 62.5 57.5 -10
endloop
endfacet
facet normal 1 0 0
outer loop
vertex 22.5 12.5 -10
vertex 22.5 12.5 10
vertex 22.5 7.5 10
endloop
endfacet
facet normal 1 0 0
outer loop
vertex 22.5 12.5 -10
vertex 22.5 7.5 10
vertex 22.5 7.5 -10
endloop
endfacet
facet normal 1 0 0
outer loop
vertex 22.5 42.5 -10
vertex 22.5 42.5 10
vertex 22.5 27.5 10
endloop
endfacet
facet normal 1 0 0
outer loop
vertex 22.5 42.5 -10
vertex 22.5 27.5 10
vertex 22.5 27.5 -10
endloop
endfacet
facet normal 1 0 0
outer loop
vertex 22.5 72.5 -10
vertex 22.5 72.5 10
vertex 22.5 62.5 10
endloop
endfacet
facet normal 1 0 0
outer loop
vertex 22.5 72.5 -10
vertex 22.5 62.5 10
vertex 22.5 62.5 -10
endloop
endfacet
facet normal 0 1 0
outer loop
vertex 32.5 62.5 10
vertex 32.5 62.5 -10
vertex 22.5 62.5 -10
endloop
endfacet
facet normal 0 1 0
outer loop
vertex 32.5 62.5 10
vertex 22.5 62.5 -10
vertex 22.5 62.5 10
endloop
endfacet
facet normal 0 1 0
outer loop
vertex 67.5 62.5 10
vertex 67.5 62.5 -10
vertex 42.5 62.5 -10
endloop
endfacet
facet normal 0 1 0
outer loop
vertex 67.5 62.5 10
vertex 42.5 62.5 -10
vertex 42.5 62.5 10
endloop
endfacet
facet normal -1 0 0
outer loop
vertex 42.5 2.5 10
vertex 42.5 2.5 -10
vertex 42.5 -2.5 -10
endloop
endfacet
facet normal -1 0 0
outer loop
vertex 42.5 2.5 10
vertex 42.5 -2.5 -10
vertex 42.5 -2.5 10
endloop
endfacet
facet normal -1 0 0
outer loop
vertex 42.5 12.5 10
vertex 42.5 12.5 -10
vertex 42.5 7.5 -10
endloop
endfacet
facet normal -1 0 0
outer loop
vertex 42.5 12.5 10
vertex 42.5 7.5 -10
vertex 42.5 7.5 10
endloop
endfacet
facet normal -1 0 0
outer loop
vertex 42.5 32.5 10
vertex 42.5 32.5 -10
vertex 42.5 27.5 -10
endloop
endfacet
facet normal -1 0 0
outer loop
vertex 42.5 32.5 10
vertex 42.5 27.5 -10
vertex 42.5 27.5 10
endloop
endfacet
facet normal -1 0 0
outer loop
vertex 42.5 62.5 10
vertex 42.5 62.5 -10
vertex 42.5 57.5 -10
endloop
endfacet
facet normal -1 0 0
outer loop
vertex 42.5 62.5 10
vertex 42.5 57.5 -10
vertex 42.5 57.5 10
endloop
endfacet
facet normal 1 0 0
outer loop
vertex 67.5 47.5 -10
vertex 67.5 47.5 10
vertex 67.5 37.5 10
endloop
endfacet
facet normal 1 0 0
outer loop
vertex 67.5 47.5 -10
vertex 67.5 37.5 10
vertex 67.5 37.5 -10
endloop
endfacet
facet normal 1 0 0
outer loop
vertex 67.5 62.5 -10
vertex 67.5 62.5 10
vertex 67.5 57.5 10
endloop
endfacet
facet normal 1 0 0
outer loop
vertex 67.5 62.5 -10
vertex 67.5 57.5 10
vertex 67.5 57.5 -10
endloop
endfacet
facet normal 0 -1 0
outer loop
vertex 7.5 52.5 -10
vertex 7.5 52.5 10
vertex 2.5 52.5 10
endloop
endfacet
facet normal 0 -1 0
outer loop
vertex 7.5 52.5 -10
vertex 2.5 52.5 10
vertex 2.5 52.5 -10
endloop
endfacet
facet normal 0 -1 0
outer loop
vertex 52.5 52.5 -10
vertex 52.5 52.5 10
vertex 32.5 52.5 10
endloop
endfacet
facet normal 0 -1 0
outer loop
vertex 52.5 52.5 -10
vertex 32.5 52.5 10
vertex 32.5 52.5 -10
endloop
endfacet
facet normal -1 0 0
outer loop
vertex 27.5 7.5 10
vertex 27.5 7.5 -10
vertex 27.5 2.5 -10
endloop
endfacet
facet normal -1 0 0
outer loop
vertex 27.5 7.5 10
vertex 27.5 2.5 -10
vertex 27.5 2.5 10
endloop
endfacet
facet normal -1 0 0
outer loop
vertex 27.5 57.5 10
vertex 27.5 57.5 -10
vertex 27.5 52.5 -10
endloop
endfacet
facet normal -1 0 0
outer loop
vertex 27.5 57.5 10
vertex 27.5 52.5 -10
vertex 27.5 52.5 10
endloop
endfacet
facet normal 1 0 0
outer loop
vertex 32.5 52.5 -10
vertex 32.5 52.5 10
vertex 32.5 47.5 10
endloop
endfacet
facet normal 1 0 0
outer loop
vertex 32.5 52.5 -10
vertex 32.5 47.5 10
vertex 32.5 47.5 -10
endloop
endfacet
facet normal 1 0 0
outer loop
vertex 32.5 62.5 -10
vertex 32.5 62.5 10
vertex 32.5 57.5 10
endloop
endfacet
facet normal 1 0 0
outer loop
vertex 32.5 62.5 -10
vertex 32.5 57.5 10
vertex 32.5 57.5 -10
endloop
endfacet
facet normal 0 1 0
outer loop
vertex 42.5 57.5 10
vertex 42.5 57.5 -10
vertex 32.5 57.5 -10
endloop
endfacet
facet normal 0 1 0
outer loop
vertex 42.5 57.5 10
vertex 32.5 57.5 -10
vertex 32.5 57.5 10
endloop
endfacet
facet normal 1 0 0
outer loop
vertex 52.5 32.5 -10
vertex 52.5 32.5 10
vertex 52.5 27.5 10
endloop
endfacet
facet normal 1 0 0
outer loop
vertex 52.5 32.5 -10
vertex 52.5 27.5 10
vertex 52.5 27.5 -10
endloop
endfacet
facet normal 1 0 0
outer loop
vertex 52.5 57.5 -10
vertex 52.5 57.5 10
vertex 52.5 52.5 10
endloop
endfacet
facet normal 1 0 0
outer loop
vertex 52.5 57.5 -10
vertex 52.5 52.5 10
vertex 52.5 52.5 -10
endloop
endfacet
facet normal -1 0 0
outer loop
vertex 57.5 52.5 -10
vertex 57.5 52.5 10
vertex 57.5 57.5 10
endloop
endfacet
facet normal -1 0 0
outer loop
vertex 57.5 52.5 -10
vertex 57.5 57.5 10
vertex 57.5 57.5 -10
endloop
endfacet
facet normal 1 0 0
outer loop
vertex 62.5 57.5 -10
vertex 62.5 57.5 10
vertex 62.5 47.5 10
endloop
endfacet
facet normal 1 0 0
outer loop
vertex 62.5 57.5 -10
vertex 62.5 47.5 10
vertex 62.5 47.5 -10
endloop
endfacet
facet normal -1 0 0
outer loop
vertex 22.5 22.5 10
vertex 22.5 22.5 -10
vertex 22.5 17.5 -10
endloop
endfacet
facet normal -1 0 0
outer loop
vertex 22.5 22.5 10
vertex 22.5 17.5 -10
vertex 22.5 17.5 10
endloop
endfacet
facet normal -1 0 0
outer loop
vertex 22.5 52.5 10
vertex 22.5 52.5 -10
vertex 22.5 47.5 -10
endloop
endfacet
facet normal -1 0 0
outer loop
vertex 22.5 52.5 10
vertex 22.5 47.5 -10
vertex 22.5 47.5 10
endloop
endfacet
facet normal 0 -1 0
outer loop
vertex 32.5 47.5 -10
vertex 32.5 47.5 10
vertex 27.5 47.5 10
endloop
endfacet
facet normal 0 -1 0
outer loop
vertex 32.5 47.5 -10
vertex 27.5 47.5 10
vertex 27.5 47.5 -10
endloop
endfacet
facet normal 0 -1 0
outer loop
vertex 62.5 47.5 -10
vertex 62.5 47.5 10
vertex 57.5 47.5 10
endloop
endfacet
facet normal 0 -1 0
outer loop
vertex 62.5 47.5 -10
vertex 57.5 47.5 10
vertex 57.5 47.5 -10
endloop
endfacet
facet normal 0 1 0
outer loop
vertex 27.5 52.5 10
vertex 27.5 52.5 -10
vertex 22.5 52.5 -10
endloop
endfacet
facet normal 0 1 0
outer loop
vertex 27.5 52.5 10
vertex 22.5 52.5 -10
vertex 22.5 52.5 10
endloop
endfacet
facet normal 0 1 0
outer loop
vertex 57.5 52.5 10
vertex 57.5 52.5 -10
vertex 52.5 52.5 -10
endloop
endfacet
facet normal 0 1 0
outer loop
vertex 57.5 52.5 10
vertex 52.5 52.5 -10
vertex 52.5 52.5 10
endloop
endfacet
facet normal -1 0 0
outer loop
vertex 52.5 27.5 10
vertex 52.5 27.5 -10
vertex 52.5 7.5 -10
endloop
endfacet
facet normal -1 0 0
outer loop
vertex 52.5 27.5 10
vertex 52.5 7.5 -10
vertex 52.5 7.5 10
endloop
endfacet
facet normal -1 0 0
outer loop
vertex 52.5 52.5 10
vertex 52.5 52.5 -10
vertex 52.5 37.5 -10
endloop
endfacet
facet normal -1 0 0
outer loop
vertex 52.5 52.5 10
vertex 52.5 37.5 -10
vertex 52.5 37.5 10
endloop
endfacet
facet normal 0 -1 0
outer loop
vertex 27.5 42.5 -10
vertex 27.5 42.5 10
vertex 22.5 42.5 10
endloop
endfacet
facet normal 0 -1 0
outer loop
vertex 27.5 42.5 -10
vertex 22.5 42.5 10
vertex 22.5 42.5 -10
endloop
endfacet
facet normal 0 1 0
outer loop
vertex 22.5 47.5 10
vertex 22.5 47.5 -10
vertex 12.5 47.5 -10
endloop
endfacet
facet normal 0 1 0
outer loop
vertex 22.5 47.5 10
vertex 12.5 47.5 -10
vertex 12.5 47.5 10
endloop
endfacet
facet normal 0 1 0
outer loop
vertex 67.5 47.5 10
vertex 67.5 47.5 -10
vertex 62.5 47.5 -10
endloop
endfacet
facet normal 0 1 0
outer loop
vertex 67.5 47.5 10
vertex 62.5 47.5 -10
vertex 62.5 47.5 10
endloop
endfacet
facet normal 1 0 0
outer loop
vertex 27.5 27.5 -10
vertex 27.5 27.5 10
vertex 27.5 12.5 10
endloop
endfacet
facet normal 1 0 0
outer loop
vertex 27.5 27.5 -10
vertex 27.5 12.5 10
vertex 27.5 12.5 -10
endloop
endfacet
facet normal 1 0 0
outer loop
vertex 27.5 47.5 -10
vertex 27.5 47.5 10
vertex 27.5 42.5 10
endloop
endfacet
facet normal 1 0 0
outer loop
vertex 27.5 47.5 -10
vertex 27.5 42.5 10
vertex 27.5 42.5 -10
endloop
endfacet
facet normal 1 0 0
outer loop
vertex 57.5 27.5 -10
vertex 57.5 27.5 10
vertex 57.5 2.5 10
endloop
endfacet
facet normal 1 0 0
outer loop
vertex 57.5 27.5 -10
vertex 57.5 2.5 10
vertex 57.5 2.5 -10
endloop
endfacet
facet normal 1 0 0
outer loop
vertex 57.5 47.5 -10
vertex 57.5 47.5 10
vertex 57.5 32.5 10
endloop
endfacet
facet normal 1 0 0
outer loop
vertex 57.5 47.5 -10
vertex 57.5 32.5 10
vertex 57.5 32.5 -10
endloop
endfacet
facet normal -1 0 0
outer loop
vertex 62.5 47.5 10
vertex 62.5 47.5 -10
vertex 62.5 37.5 -10
endloop
endfacet
facet normal -1 0 0
outer loop
vertex 62.5 47.5 10
vertex 62.5 37.5 -10
vertex 62.5 37.5 10
endloop
endfacet
facet normal 0 -1 0
outer loop
vertex 67.5 37.5 -10
vertex 67.5 37.5 10
vertex 62.5 37.5 10
endloop
endfacet
facet normal 0 -1 0
outer loop
vertex 67.5 37.5 -10
vertex 62.5 37.5 10
vertex 62.5 37.5 -10
endloop
endfacet
facet normal -1 0 0
outer loop
vertex 47.5 32.5 -10
vertex 47.5 32.5 10
vertex 47.5 37.5 10
endloop
endfacet
facet normal -1 0 0
outer loop
vertex 47.5 32.5 -10
vertex 47.5 37.5 10
vertex 47.5 37.5 -10
endloop
endfacet
facet normal 0 1 0
outer loop
vertex 47.5 37.5 -10
vertex 47.5 37.5 10
vertex 52.5 37.5 10
endloop
endfacet
facet normal 0 1 0
outer loop
vertex 47.5 37.5 -10
vertex 52.5 37.5 10
vertex 52.5 37.5 -10
endloop
endfacet
facet normal 0 -1 0
outer loop
vertex 17.5 27.5 -10
vertex 17.5 27.5 10
vertex 2.5 27.5 10
endloop
endfacet
facet normal 0 -1 0
outer loop
vertex 17.5 27.5 -10
vertex 2.5 27.5 10
vertex 2.5 27.5 -10
endloop
endfacet
facet normal 0 -1 0
outer loop
vertex 52.5 27.5 -10
vertex 52.5 27.5 10
vertex 42.5 27.5 10
endloop
endfacet
facet normal 0 -1 0
outer loop
vertex 52.5 27.5 -10
vertex 42.5 27.5 10
vertex 42.5 27.5 -10
endloop
endfacet
facet normal 0 1 0
outer loop
vertex 12.5 32.5 10
vertex 12.5 32.5 -10
vertex 2.5 32.5 -10
endloop
endfacet
facet normal 0 1 0
outer loop
vertex 12.5 32.5 10
vertex 2.5 32.5 -10
vertex 2.5 32.5 10
endloop
endfacet
facet normal 0 1 0
outer loop
vertex 47.5 32.5 10
vertex 47.5 32.5 -10
vertex 42.5 32.5 -10
endloop
endfacet
facet normal 0 1 0
outer loop
vertex 47.5 32.5 10
vertex 42.5 32.5 -10
vertex 42.5 32.5 10
endloop
endfacet
facet normal 0 -1 0
outer loop
vertex 57.5 32.5 -10
vertex 57.5 32.5 10
vertex 52.5 32.5 10
endloop
endfacet
facet normal 0 -1 0
outer loop
vertex 57.5 32.5 -10
vertex 52.5 32.5 10
vertex 52.5 32.5 -10
endloop
endfacet
facet normal 0 -1 0
outer loop
vertex 22.5 22.5 -10
vertex 22.5 22.5 10
vertex 17.5 22.5 10
endloop
endfacet
facet normal 0 -1 0
outer loop
vertex 22.5 22.5 -10
vertex 17.5 22.5 10
vertex 17.5 22.5 -10
endloop
endfacet
facet normal 0 1 0
outer loop
vertex 27.5 27.5 10
vertex 27.5 27.5 -10
vertex 22.5 27.5 -10
endloop
endfacet
facet normal 0 1 0
outer loop
vertex 27.5 27.5 10
vertex 22.5 27.5 -10
vertex 22.5 27.5 10
endloop
endfacet
facet normal 0 1 0
outer loop
vertex 57.5 27.5 10
vertex 57.5 27.5 -10
vertex 52.5 27.5 -10
endloop
endfacet
facet normal 0 1 0
outer loop
vertex 57.5 27.5 10
vertex 52.5 27.5 -10
vertex 52.5 27.5 10
endloop
endfacet
facet normal 0 -1 0
outer loop
vertex 27.5 12.5 -10
vertex 27.5 12.5 10
vertex 22.5 12.5 10
endloop
endfacet
facet normal 0 -1 0
outer loop
vertex 27.5 12.5 -10
vertex 22.5 12.5 10
vertex 22.5 12.5 -10
endloop
endfacet
facet normal 0 1 0
outer loop
vertex 17.5 17.5 -10
vertex 17.5 17.5 10
vertex 22.5 17.5 10
endloop
endfacet
facet normal 0 1 0
outer loop
vertex 17.5 17.5 -10
vertex 22.5 17.5 10
vertex 22.5 17.5 -10
endloop
endfacet
facet normal 0 -1 0
outer loop
vertex 22.5 7.5 -10
vertex 22.5 7.5 10
vertex 17.5 7.5 10
endloop
endfacet
facet normal 0 -1 0
outer loop
vertex 22.5 7.5 -10
vertex 17.5 7.5 10
vertex 17.5 7.5 -10
endloop
endfacet
facet normal 0 1 0
outer loop
vertex 17.5 12.5 10
vertex 17.5 12.5 -10
vertex 12.5 12.5 -10
endloop
endfacet
facet normal 0 1 0
outer loop
vertex 17.5 12.5 10
vertex 12.5 12.5 -10
vertex 12.5 12.5 10
endloop
endfacet
facet normal 0 1 0
outer loop
vertex 37.5 12.5 10
vertex 37.5 12.5 -10
vertex 32.5 12.5 -10
endloop
endfacet
facet normal 0 1 0
outer loop
vertex 37.5 12.5 10
vertex 32.5 12.5 -10
vertex 32.5 12.5 10
endloop
endfacet
facet normal 0 1 0
outer loop
vertex 47.5 12.5 10
vertex 47.5 12.5 -10
vertex 42.5 12.5 -10
endloop
endfacet
facet normal 0 1 0
outer loop
vertex 47.5 12.5 10
vertex 42.5 12.5 -10
vertex 42.5 12.5 10
endloop
endfacet
facet normal -1 0 0
outer loop
vertex 32.5 7.5 -10
vertex 32.5 7.5 10
vertex 32.5 12.5 10
endloop
endfacet
facet normal -1 0 0
outer loop
vertex 32.5 7.5 -10
vertex 32.5 12.5 10
vertex 32.5 12.5 -10
endloop
endfacet
facet normal -1 0 0
outer loop
vertex 7.5 7.5 10
vertex 7.5 7.5 -10
vertex 7.5 -2.5 -10
endloop
endfacet
facet normal -1 0 0
outer loop
vertex 7.5 7.5 10
vertex 7.5 -2.5 -10
vertex 7.5 -2.5 10
endloop
endfacet
facet normal 0 -1 0
outer loop
vertex 17.5 2.5 -10
vertex 17.5 2.5 10
vertex 12.5 2.5 10
endloop
endfacet
facet normal 0 -1 0
outer loop
vertex 17.5 2.5 -10
vertex 12.5 2.5 10
vertex 12.5 2.5 -10
endloop
endfacet
facet normal 0 -1 0
outer loop
vertex 42.5 2.5 -10
vertex 42.5 2.5 10
vertex 27.5 2.5 10
endloop
endfacet
facet normal 0 -1 0
outer loop
vertex 42.5 2.5 -10
vertex 27.5 2.5 10
vertex 27.5 2.5 -10
endloop
endfacet
facet normal 0 -1 0
outer loop
vertex 57.5 2.5 -10
vertex 57.5 2.5 10
vertex 47.5 2.5 10
endloop
endfacet
facet normal 0 -1 0
outer loop
vertex 57.5 2.5 -10
vertex 47.5 2.5 10
vertex 47.5 2.5 -10
endloop
endfacet
facet normal 0 1 0
outer loop
vertex 12.5 7.5 10
vertex 12.5 7.5 -10
vertex 7.5 7.5 -10
endloop
endfacet
facet normal 0 1 0
outer loop
vertex 12.5 7.5 10
vertex 7.5 7.5 -10
vertex 7.5 7.5 10
endloop
endfacet
facet normal 0 1 0
outer loop
vertex 32.5 7.5 10
vertex 32.5 7.5 -10
vertex 27.5 7.5 -10
endloop
endfacet
facet normal 0 1 0
outer loop
vertex 32.5 7.5 10
vertex 27.5 7.5 -10
vertex 27.5 7.5 10
endloop
endfacet
facet normal 0 1 0
outer loop
vertex 42.5 7.5 10
vertex 42.5 7.5 -10
vertex 37.5 7.5 -10
endloop
endfacet
facet normal 0 1 0
outer loop
vertex 42.5 7.5 10
vertex 37.5 7.5 -10
vertex 37.5 7.5 10
endloop
endfacet
facet normal 0 1 0
outer loop
vertex 52.5 7.5 10
vertex 52.5 7.5 -10
vertex 47.5 7.5 -10
endloop
endfacet
facet normal 0 1 0
outer loop
vertex 52.5 7.5 10
vertex 47.5 7.5 -10
vertex 47.5 7.5 10
endloop
endfacet
facet normal 1 0 0
outer loop
vertex 37.5 12.5 -10
vertex 37.5 12.5 10
vertex 37.5 7.5 10
endloop
endfacet
facet normal 1 0 0
outer loop
vertex 37.5 12.5 -10
vertex 37.5 7.5 10
vertex 37.5 7.5 -10
endloop
endfacet
facet normal 1 0 0
outer loop
vertex 47.5 2.5 -10
vertex 47.5 2.5 10
vertex 47.5 -2.5 10
endloop
endfacet
facet normal 1 0 0
outer loop
vertex 47.5 2.5 -10
vertex 47.5 -2.5 10
vertex 47.5 -2.5 -10
endloop
endfacet
facet normal 1 0 0
outer loop
vertex 47.5 12.5 -10
vertex 47.5 12.5 10
vertex 47.5 7.5 10
endloop
endfacet
facet normal 1 0 0
outer loop
vertex 47.5 12.5 -10
vertex 47.5 7.5 10
vertex 47.5 7.5 -10
endloop
endfacet
facet normal 1 0 0
outer loop
vertex 12.5 -2.5 -10
vertex 12.5 2.5 -10
vertex 12.5 2.5 10
endloop
endfacet
facet normal 1 0 0
outer loop
vertex 12.5 -2.5 -10
vertex 12.5 2.5 10
vertex 12.5 -2.5 10
endloop
endfacet
facet normal 0 -1 0
outer loop
vertex 12.5 -2.5 -10
vertex 12.5 -2.5 10
vertex 7.5 -2.5 10
endloop
endfacet
facet normal 0 -1 0
outer loop
vertex 12.5 -2.5 -10
vertex 7.5 -2.5 10
vertex 7.5 -2.5 -10
endloop
endfacet
facet normal 0 -1 0
outer loop
vertex 47.5 -2.5 -10
vertex 47.5 -2.5 10
vertex 42.5 -2.5 10
endloop
endfacet
facet normal 0 -1 0
outer loop
vertex 47.5 -2.5 -10
vertex 42.5 -2.5 10
vertex 42.5 -2.5 -10
endloop
endfacet
endsolid csg.js
